<?xml version="1.0" encoding="UTF-8"?>
<svg id="Layer_1" data-name="Layer 1" xmlns="http://www.w3.org/2000/svg" xmlns:xlink="http://www.w3.org/1999/xlink" viewBox="0 0 350.5 351.75">
  <defs>
    <style>
      .cls-1 {
        fill: url(#linear-gradient-2);
      }

      .cls-2 {
        fill: #fff;
      }

      .cls-3 {
        fill: #2affa9;
      }

      .cls-4 {
        fill: url(#linear-gradient-6);
      }

      .cls-5 {
        fill: url(#linear-gradient-5);
      }

      .cls-6 {
        fill: url(#linear-gradient-7);
      }

      .cls-7 {
        fill: url(#linear-gradient-3);
      }

      .cls-8 {
        fill: url(#linear-gradient);
      }

      .cls-9 {
        fill: url(#linear-gradient-4);
      }

      .cls-10 {
        fill: url(#linear-gradient-8);
      }
    </style>
    <linearGradient id="linear-gradient" x1=".25" y1="175.87" x2="350.25" y2="175.87" gradientUnits="userSpaceOnUse">
      <stop offset=".2" stop-color="#2affa9"/>
      <stop offset=".76" stop-color="#0cd150" stop-opacity=".29"/>
      <stop offset="1" stop-color="#00bf2c" stop-opacity="0"/>
    </linearGradient>
    <linearGradient id="linear-gradient-2" x1="95.25" y1="175.78" x2="116.25" y2="175.78" xlink:href="#linear-gradient"/>
    <linearGradient id="linear-gradient-3" x1="233.25" y1="174.78" x2="254.25" y2="174.78" xlink:href="#linear-gradient"/>
    <linearGradient id="linear-gradient-4" x1="129.25" y1="185.78" x2="151.25" y2="185.78" xlink:href="#linear-gradient"/>
    <linearGradient id="linear-gradient-5" x1="162.25" y1="186.28" x2="185.25" y2="186.28" xlink:href="#linear-gradient"/>
    <linearGradient id="linear-gradient-6" x1="197.25" y1="185.78" x2="219.25" y2="185.78" xlink:href="#linear-gradient"/>
    <linearGradient id="linear-gradient-7" x1="106.82" y1="99.71" x2="180.82" y2="99.71" gradientTransform="translate(1.43 5.07)" xlink:href="#linear-gradient"/>
    <linearGradient id="linear-gradient-8" x1="174.04" y1="110.15" x2="248.04" y2="110.15" gradientTransform="translate(-4.79 -5.36)" xlink:href="#linear-gradient"/>
  </defs>
  <ellipse class="cls-8" cx="175.25" cy="175.87" rx="175" ry="175.62"/>
  <ellipse class="cls-2" cx="174.75" cy="175.28" rx="140.5" ry="141"/>
  <rect class="cls-1" x="95.25" y="138.28" width="21" height="75"/>
  <rect class="cls-7" x="233.25" y="137.28" width="21" height="75"/>
  <polygon class="cls-9" points="151.25 213.28 130.25 213.28 129.25 158.28 150.25 158.28 151.25 213.28"/>
  <polygon class="cls-5" points="185.25 214.28 164.25 214.28 162.25 158.28 183.25 158.28 185.25 214.28"/>
  <polygon class="cls-4" points="219.25 213.28 198.25 213.28 197.25 158.28 218.25 158.28 219.25 213.28"/>
  <path class="cls-3" d="M82.21,248.46c62.3-3.12,124.66-5.09,187.03-5.91,7.72-.1,7.74-12.1,0-12-62.37,.81-124.73,2.78-187.03,5.91-7.69,.39-7.73,12.39,0,12h0Z"/>
  <rect class="cls-6" x="108.25" y="96.28" width="74" height="17" transform="translate(-33.54 94.19) rotate(-32.41)"/>
  <rect class="cls-10" x="169.25" y="96.28" width="74" height="17" transform="translate(96.07 -98.64) rotate(34.63)"/>
</svg>